Patient4_TMGait_0pt8_01_right_48_EMG.mot
version=1
nRows=27
nColumns=33
inDegrees=no
endheader
time	1LAddLong	2LGlutMax	3LGlutMed	4LIliopsoas	5LSemiMemb	6LBicFemLong	7LRecFem	8LVastMed	9LVastLat	10LGasMed	11LTibAnt	12lTibPost	13LPeroneusLong	14LSol	15LExtDigLong	16LFlexDigLong	17RAddLong	18RGlutMax	19RGlutMed	20RIliopsoas	21RSemiMemb	22RBicFemLong	23RRecFem	24RVastMed	25RVastLat	26RGasMed	27RTibAnt	28RTibPost	29RPeroneusLong	30RSol	31RExtDigLong	32RFlexDigLong
54.427	-0.007477	-0.55481	0.26459	0.029144	0.008545	-0.003204	0.065918	-0.005341	0.13229	-0.029602	-0.11643	-0.006256	-0.13153	0.061493	0.01709	0.023804	0.10666	0.019379	2.8011	-0.12863	0.12955	0.58975	-0.74783	-0.30716	-0.048676	-0.020599	0.088196	-0.064392	-1.609	0.020905	-0.005951	-0.009308
54.428	-0.002747	-0.47028	0.1973	-0.002899	0.012817	-0.015259	0.051422	-0.002441	0.13718	-0.024261	-0.13184	-0.007019	-0.1741	0.069733	0.053253	0.03952	0.05127	0.039368	1.461	-0.078735	-0.38727	0.1973	-1.0472	-0.8493	0.058746	-0.027618	0.019531	-0.07431	-1.7989	0.30197	-0.010681	-0.001221
54.429	-0.005798	-0.42847	0.20187	-0.012512	0.018921	-0.021973	0.078125	-0.004425	0.13916	-0.030975	-0.1207	0.001373	-0.11581	0.046539	0.004883	0.028381	-0.043793	0.13779	-0.001678	-0.061646	-0.49896	-0.17471	-0.66406	-1.1212	0.002747	-0.092163	-0.044861	-0.060272	-0.92712	0.31128	-0.007324	0
54.43	-0.020447	-0.42328	0.29862	-0.00885	0.010529	-0.039978	0.13519	-0.015564	0.12039	-0.05188	-0.089874	0.001373	-0.06073	0.057983	0.086975	0.020294	-0.10117	0.18066	-0.20416	-0.21774	-0.22522	-0.30304	-0.24445	-1.0168	-0.057831	-0.13428	-0.098572	-0.10498	0.52155	-0.19684	-0.00412	-0.001526
54.431	-0.015564	-0.47073	0.30792	0.00824	0.010071	-0.042114	0.21423	0.001373	0.09964	-0.067291	-0.096893	-0.005951	-0.068054	0.12726	0.64743	0.026855	-0.1712	-0.057678	-0.5571	-0.19623	0.2124	-0.12604	-0.10132	-0.29663	-0.021362	-0.14526	-0.087433	-0.08667	1.0971	-0.7727	-0.001526	-0.00885
54.432	-0.023956	-0.45731	0.36026	-0.006256	0.017242	-0.041199	0.28351	-0.003815	0.074005	-0.083008	0.027924	0.001526	-0.018158	0.17609	0.15076	0.041046	-0.15427	-0.14755	0.14664	-0.10269	0.43106	0.24628	0.006256	0.1268	0.005951	-0.083008	0.075989	-0.13962	0.62149	-0.34119	-0.005798	-0.007019
54.433	-0.015411	-0.45059	0.37842	-0.01297	0.014801	-0.051575	0.27237	0.001526	0.052032	-0.069122	0.077972	0.007935	-0.030823	0.10544	-0.092926	0.024872	-0.12695	-0.25192	-0.56381	0.18249	0.2594	0.37964	0.004425	0.27756	0.087738	-0.065918	0.037689	-0.10178	0.59845	-0.052795	-0.004578	-0.01358
54.434	-0.02243	-0.39993	0.36865	0.006256	0.014648	-0.071411	0.28488	0.010681	0.024414	-0.09491	0.088959	0.002136	-0.042267	0.1091	0.009918	0.052948	-0.10223	-0.11307	-0.23972	0.33218	0.15182	0.42755	-0.13306	0.17563	0.31082	-0.0177	0.048828	0.062561	1.0518	0.11551	-0.006714	-0.013428
54.435	-0.02594	-0.35355	0.38589	0.002289	0.016479	-0.084381	0.26459	0.015564	0.00061	-0.11032	0.21332	-0.00351	-0.033722	0.12009	-0.24551	0.0383	-0.066681	0.0354	0.12558	0.37613	0.13611	0.58655	-0.46661	0.063477	0.33432	0.091095	0.04837	0.12146	0.68985	-0.040588	-0.006104	-0.011597
54.436	-0.022278	-0.39459	0.40649	-0.005341	0.016479	-0.087585	0.18829	0.009613	-0.027771	-0.087891	0.17944	0.001678	-0.085754	0.075989	-0.44952	0.022736	-0.062408	0.1152	0.24933	0.26489	0.14542	0.22018	-0.71808	0.011902	0.30991	0.051575	0.008545	-0.016174	0.26596	0.15106	-0.006256	-0.005493
54.437	-0.013275	-0.41214	0.34531	0.005951	0.024109	-0.055237	0.21255	0.013428	-0.028839	-0.078125	-0.058746	0.006256	-0.1152	0.027771	-0.32761	0.020599	-0.037079	-0.041351	0.68527	0.013123	0.23743	-0.37262	-0.46585	0.16281	0.2124	-0.001221	-0.17517	-0.071106	0.80612	0.21805	-0.005646	-0.003357
54.438	-0.00824	-0.3804	0.31418	0.003815	0.022278	-0.030975	0.40573	0.022583	-0.03418	-0.075989	-0.27268	0.007782	-0.11154	-0.047302	-0.38605	0.015411	0.005798	-0.27603	0.19165	-0.14954	0.22156	-0.86426	-0.1062	0.064697	-0.014038	-0.017395	-0.094299	-0.040588	0.12329	0.25391	-0.00412	-0.018463
54.439	-0.005798	-0.39017	0.31815	0.01236	0.003967	-0.015717	0.48492	0.017853	-0.059509	-0.069885	-0.11002	-0.001984	-0.10208	-0.082092	0.020905	0.021057	0.036011	-0.33737	-0.61569	-0.051727	0.16037	-0.89355	-0.007782	-0.091553	-0.12848	0.020447	0.032043	-0.010376	-1.4233	0.09613	-0.005035	-0.017548
54.44	-0.006409	-0.34943	0.3157	0.000763	0.021362	0.020599	0.34683	0.011597	-0.080719	-0.09491	0.09201	0.007324	-0.050049	0.029297	0.19562	0.022888	0.002899	-0.26352	-1.0896	-0.064545	-0.003357	-0.51971	-0.17395	-0.02243	-0.35355	0.01709	0.10117	-0.039215	-1.4937	0.49591	-0.002441	-0.024109
54.441	-0.003662	-0.33508	0.37445	0.000305	0.007629	0.035858	0.26077	0.021362	-0.070343	-0.097046	0.34073	0.002899	-0.035858	0.058289	0.10315	0.015259	0.006256	-0.40909	-1.492	0.007019	-0.12634	-0.6456	0.069122	0.010223	-0.12497	-0.009918	0.30029	-0.028839	-0.18097	0.35446	-0.005493	-0.010223
54.442	-0.003052	-0.28961	0.39276	0.011749	0.015717	0.056	0.17364	0.023804	-0.076752	-0.11978	0.35385	0.003357	-0.012665	0.033264	0.42602	0.028229	0.040894	-0.68039	-2.0439	0.040894	-0.039215	-0.71777	0.29404	-0.29312	0.053711	-0.01297	0.1648	-0.02243	2.1022	-0.12375	-0.001831	-0.002441
54.443	-0.005798	-0.2214	0.41504	0.027924	0.009766	0.038605	0.041351	0.027313	-0.088348	-0.15839	0.088806	-0.002136	0.006561	0.052338	0.13534	0.024109	0.027008	-0.85007	-1.9981	0.046234	0.001678	-0.44601	0.36621	-0.45731	0.16113	0.11948	-0.037384	0.014191	2.8963	-0.6456	-0.002136	0.000763
54.444	-0.003662	-0.17792	0.35446	0.020905	0.005798	0.048676	-0.084686	0.034027	-0.10437	-0.12482	-0.003052	-0.001373	-0.092316	0.090485	-0.031586	0.026398	-0.020599	-0.86563	-1.5015	0.03006	0.09903	-0.15671	0.43671	-0.21225	0.14252	0.12116	-0.17227	0.040436	-0.36453	-0.22492	-0.003967	-0.002136
54.445	-0.007019	-0.1889	0.3154	-0.01358	0.006714	0.050812	-0.16586	0.03006	-0.11292	-0.099487	-0.18478	0.000305	-0.085754	0.068817	0.25559	0.023651	-0.016022	-0.83649	-1.2799	0.05249	0.16113	0.27512	0.66101	-0.16281	-0.040436	0.043793	-0.13001	0.088196	-2.1474	-0.23315	-0.002747	-0.002594
54.446	-0.003815	-0.18753	0.29373	-0.02121	0.001068	0.024109	-0.18845	0.020599	-0.12161	-0.071106	-0.19104	-0.006104	-0.06134	0.018005	0.36972	0.021057	-0.061951	-0.69778	-1.382	0.082703	0.16556	0.77606	0.75989	0.028534	-0.21408	-0.010529	-0.002289	0.001526	-1.5883	0.35843	-0.005188	-0.009918
54.447	-0.00061	-0.1857	0.23163	0.004272	0.005951	0.03067	-0.18814	0.018311	-0.13229	-0.061035	-0.17029	-0.00885	-0.06958	0.014496	-0.007477	0.007629	-0.060272	-0.52795	-1.642	0.036926	0.073547	0.78201	0.79941	0.30151	-0.6694	0.004272	-0.14191	-0.050201	-2.5255	0.36758	-0.007172	-0.011139
54.448	-0.006561	-0.13138	0.15991	0.019989	0.002747	0.017395	-0.14694	0.011139	-0.13184	-0.042114	-0.092621	-0.001526	-0.062714	0.009308	-0.25925	0.017242	-0.037994	-0.40085	-1.8666	0.051575	-0.059967	0.73105	0.86868	0.52368	-0.65536	0.015869	-0.078125	-0.035553	-1.5079	-0.003967	-0.006561	-0.003662
54.449	-0.005188	-0.14008	0.14999	0	-0.011139	0.016174	-0.093994	0.007019	-0.13199	-0.028839	-0.050507	-0.001373	-0.058289	0.10284	-0.34531	-0.010071	-0.014343	-0.27756	-1.4197	-0.005341	0.13001	0.40131	0.87875	0.5159	-0.42877	0.032959	-0.1149	-0.020752	1.6095	-0.041809	-0.003052	-0.012207
54.45	-0.002136	-0.078278	0.1712	-0.036011	0.002136	-0.003662	-0.031586	0.011749	-0.093689	-0.043335	-0.091248	-0.003052	0.073395	0.12466	-0.32959	-0.005035	-0.018005	-0.10605	-0.61981	-0.072327	0.038605	-0.033417	0.61783	0.43427	-0.13687	0.015564	-0.31128	-0.024414	1.6087	0.12222	0.001068	-0.016937
54.451	0.00412	-0.007172	0.19836	-0.035095	0.007935	-0.019531	0.051117	0.018158	-0.091705	-0.041809	-0.11551	0	0.12909	0.12558	-0.067291	0.005798	0.01236	0.058289	0.10284	-0.078735	-0.031738	-0.31738	0.61859	0.23285	-0.023956	-0.011139	-0.16525	-0.019989	1.81	-0.012817	-0.007324	-0.029755
54.452	0.000458	0.096436	0.19012	-0.012512	-0.003052	-0.016174	0.21378	0.013123	-0.072632	-0.033112	-0.070648	0.006561	-0.16113	0.15366	0.23804	0.010681	0.025787	0.18601	0.21683	-0.059509	-0.001831	-0.41504	0.78812	0.09903	-0.066223	-0.049438	0.087585	-0.016937	1.5105	-0.084839	-0.00351	-0.025482
54.453	-0.001526	0.12909	0.15579	0.010986	-0.000305	-0.022736	0.30685	0.003967	-0.077362	-0.028534	-0.050812	-0.00473	-0.25559	0.22827	0.32745	0.029755	0.039215	0.32944	0.68192	-0.032196	0.019226	-0.3038	0.72586	0.077209	-0.078125	-0.002289	0.028381	-0.013275	1.2997	-0.12665	-0.005951	-0.021667
